<?xml version="1.0" encoding="UTF-8"?>
<svg width="24px" height="24px" viewBox="0 0 24 24" version="1.1" xmlns="http://www.w3.org/2000/svg">
    <g stroke="none" stroke-width="1" fill="none" fill-rule="evenodd">
        <path d="M21.8047,3L13.3047,8.6L14.6387,5.2L21.8047,3Z" fill="#E17726"/>
        <path d="M2.1953,3L10.6133,8.6L9.3613,5.2L2.1953,3Z" fill="#E27625"/>
        <path d="M19.0469,16.8L16.9219,20.2L21.3359,21.5L22.5859,16.9L19.0469,16.8Z" fill="#E27625"/>
        <path d="M1.4297,16.9L2.6797,21.5L7.0937,20.2L4.9687,16.8L1.4297,16.9Z" fill="#E27625"/>
        <path d="M6.9141,11.3L5.8281,13.2L10.1953,13.4L10.0625,8.7L6.9141,11.3Z" fill="#E27625"/>
        <path d="M17.0859,11.3L13.8906,8.7L13.8047,13.4L18.1719,13.2L17.0859,11.3Z" fill="#E27625"/>
        <path d="M7.0937,20.2L9.9297,18.9L7.5234,16.9L7.0937,20.2Z" fill="#E27625"/>
        <path d="M14.0703,18.9L16.9219,20.2L16.4766,16.9L14.0703,18.9Z" fill="#E27625"/>
        <path d="M16.9219,20.2L14.0703,18.9L14.2969,20.7L14.2656,21.4L16.9219,20.2Z" fill="#D5BFB2"/>
        <path d="M7.0937,20.2L9.75,21.4L9.7344,20.7L9.9297,18.9L7.0937,20.2Z" fill="#D5BFB2"/>
        <path d="M9.8125,15.9L7.5234,15.2L9.1406,14.4L9.8125,15.9Z" fill="#233447"/>
        <path d="M14.1875,15.9L14.8594,14.4L16.4922,15.2L14.1875,15.9Z" fill="#233447"/>
        <path d="M7.0937,20.2L7.5547,16.8L4.9687,16.9L7.0937,20.2Z" fill="#CC6228"/>
        <path d="M16.4453,16.8L16.9219,20.2L19.0469,16.9L16.4453,16.8Z" fill="#CC6228"/>
        <path d="M18.1719,13.2L13.8047,13.4L14.1875,15.9L14.8594,14.4L16.4922,15.2L18.1719,13.2Z" fill="#CC6228"/>
        <path d="M7.5234,15.2L9.1406,14.4L9.8125,15.9L10.1953,13.4L5.8281,13.2L7.5234,15.2Z" fill="#CC6228"/>
        <path d="M5.8281,13.2L7.5234,16.9L7.5234,15.2L5.8281,13.2Z" fill="#E27525"/>
        <path d="M16.4922,15.2L16.4766,16.9L18.1719,13.2L16.4922,15.2Z" fill="#E27525"/>
        <path d="M10.1953,13.4L9.8125,15.9L10.2891,18.5L10.3906,15L10.1953,13.4Z" fill="#E27525"/>
        <path d="M13.8047,13.4L13.625,15L13.7109,18.5L14.1875,15.9L13.8047,13.4Z" fill="#E27525"/>
        <path d="M14.1875,15.9L13.7109,18.5L14.0703,18.9L16.4766,16.9L16.4922,15.2L14.1875,15.9Z" fill="#F5841F"/>
        <path d="M7.5234,15.2L7.5234,16.9L9.9297,18.9L10.2891,18.5L9.8125,15.9L7.5234,15.2Z" fill="#F5841F"/>
        <path d="M14.2656,21.4L14.2969,20.7L14.0859,20.5H9.9141L9.7344,20.7L9.75,21.4L7.0937,20.2L7.8906,20.8L9.8672,22.1H14.1172L16.1094,20.8L16.9219,20.2L14.2656,21.4Z" fill="#C0AC9D"/>
        <path d="M14.0703,18.9L13.7109,18.5H10.2891L9.9297,18.9L9.7344,20.7L9.9141,20.5H14.0859L14.2969,20.7L14.0703,18.9Z" fill="#161616"/>
        <path d="M21.9844,8.7L22.6562,5.4L21.8047,3L14.0703,8.3L17.0859,11.3L21.2109,12.5L22.1406,11.4L21.75,11.1L22.3906,10.5L21.9219,10.1L22.5625,9.6L21.9844,8.7Z" fill="#763E1A"/>
        <path d="M1.3438,5.4L2.0156,8.7L1.4219,9.6L2.0781,10.1L1.6094,10.5L2.25,11.1L1.8594,11.4L2.7891,12.5L6.9141,11.3L9.9297,8.3L2.1953,3L1.3438,5.4Z" fill="#763E1A"/>
        <path d="M21.2109,12.5L17.0859,11.3L18.1719,13.2L16.4766,16.9L19.0469,16.9H22.5859L21.2109,12.5Z" fill="#F5841F"/>
        <path d="M6.9141,11.3L2.7891,12.5L1.4297,16.9H4.9687L7.5234,16.9L5.8281,13.2L6.9141,11.3Z" fill="#F5841F"/>
        <path d="M13.8047,13.4L14.0703,8.3L14.6387,5.2H9.3613L9.9297,8.3L10.1953,13.4L10.2734,15.0156L10.2891,18.5H13.7109L13.7266,15.0156L13.8047,13.4Z" fill="#F5841F"/>
    </g>
</svg>
