<?xml version="1.0" encoding="UTF-8"?>
<svg width="24px" height="24px" viewBox="0 0 24 24" version="1.1" xmlns="http://www.w3.org/2000/svg">
    <g stroke="none" stroke-width="1" fill="none" fill-rule="evenodd">
        <path d="M4.876,7.203 C8.439,3.645 14.277,3.645 17.84,7.203 L18.266,7.628 C18.455,7.817 18.455,8.12 18.266,8.309 L16.857,9.717 C16.762,9.812 16.61,9.812 16.515,9.717 L15.941,9.144 C13.467,6.674 9.249,6.674 6.775,9.144 L6.158,9.76 C6.063,9.855 5.911,9.855 5.816,9.76 L4.407,8.352 C4.218,8.163 4.218,7.86 4.407,7.671 L4.876,7.203 Z M20.686,10.045 L21.947,11.304 C22.136,11.493 22.136,11.796 21.947,11.985 L16.151,17.773 C15.962,17.962 15.658,17.962 15.47,17.773 L11.397,13.706 C11.349,13.659 11.271,13.659 11.223,13.706 L7.151,17.773 C6.962,17.962 6.658,17.962 6.47,17.773 L0.673,11.985 C0.484,11.796 0.484,11.493 0.673,11.304 L1.934,10.045 C2.123,9.856 2.427,9.856 2.615,10.045 L6.688,14.112 C6.736,14.159 6.814,14.159 6.862,14.112 L10.934,10.045 C11.123,9.856 11.427,9.856 11.615,10.045 L15.688,14.112 C15.736,14.159 15.814,14.159 15.862,14.112 L19.934,10.045 C20.193,9.856 20.497,9.856 20.686,10.045 Z" fill="#3B99FC" fill-rule="nonzero"></path>
    </g>
</svg>
